<svg width="192" height="192" fill="none" xmlns="http://www.w3.org/2000/svg"><rect width="192" height="192" rx="8" fill="#EEE"/><path d="M34.95 125.88c-3.59-5.1-5.3-11.2-4.88-17.34V83.47a27.27 27.27 0 014.81-17.52c3.23-3.99 8.75-5.97 16.56-5.95 7.81.02 13.1 1.77 15.87 5.25a21.81 21.81 0 014.64 15v5.89H57.5v-6.39a32.08 32.08 0 00-.45-5 5.53 5.53 0 00-1.64-3.18 5.5 5.5 0 00-4.01-1.24 5.28 5.28 0 00-3.03.46 5 5 0 00-2.2 2.05 17.6 17.6 0 00-1.19 7.35v31.82a15.4 15.4 0 001.36 7.35c.5.84 1.25 1.52 2.15 1.95.9.43 1.91.6 2.91.5.98.13 1.98-.04 2.86-.48a4.6 4.6 0 002.02-2 18.78 18.78 0 001.08-7.32v-6.68h14.44v5.78a23.48 23.48 0 01-4.3 15.4c-3.06 3.68-8.36 5.49-15.9 5.49-7.52 0-13.41-2-16.66-6.12zM91.25 60h15.6L120 132h-12.96l-2.33-15.9H93.79l-2.63 15.8H78L91.25 60zm12 47.04L99.13 78.1 95 107.04h8.26zM130.88 70.85H120V60h36v10.85h-10.75V132h-14.4l.03-61.15z" fill="#111"/></svg>